<svg xmlns="http://www.w3.org/2000/svg" width="1400" height="900" viewBox="0 0 1400 900" role="img" aria-label="city skyline at sunset">
  <defs>
    <linearGradient id="sky" x1="0" x2="0" y1="0" y2="1">
      <stop offset="0%" stop-color="#f8d9a0"/>
      <stop offset="48%" stop-color="#d9806d"/>
      <stop offset="100%" stop-color="#263246"/>
    </linearGradient>
    <linearGradient id="glass" x1="0" x2="1" y1="0" y2="1">
      <stop offset="0%" stop-color="#fff8e7" stop-opacity=".75"/>
      <stop offset="100%" stop-color="#2a3850" stop-opacity=".48"/>
    </linearGradient>
  </defs>
  <rect width="1400" height="900" fill="url(#sky)"/>
  <circle cx="1080" cy="170" r="105" fill="#fff2bd" opacity=".86"/>
  <path d="M0 665c150-36 285-34 404 7 128 44 242 33 353-30 132-75 278-74 438 0 71 33 139 47 205 43v215H0z" fill="#1d2838" opacity=".86"/>
  <g fill="#24324a">
    <rect x="74" y="314" width="146" height="380"/>
    <rect x="260" y="240" width="198" height="454"/>
    <rect x="500" y="356" width="126" height="338"/>
    <rect x="670" y="286" width="218" height="408"/>
    <rect x="928" y="224" width="166" height="470"/>
    <rect x="1134" y="330" width="194" height="364"/>
  </g>
  <g fill="url(#glass)">
    <rect x="112" y="356" width="36" height="62" rx="4"/><rect x="168" y="356" width="36" height="62" rx="4"/>
    <rect x="302" y="292" width="42" height="72" rx="4"/><rect x="374" y="292" width="42" height="72" rx="4"/>
    <rect x="716" y="334" width="46" height="78" rx="4"/><rect x="796" y="334" width="46" height="78" rx="4"/>
    <rect x="972" y="274" width="40" height="70" rx="4"/><rect x="1038" y="274" width="40" height="70" rx="4"/>
  </g>
</svg>
